<?xml version="1.0" encoding="UTF-8"?>
<!DOCTYPE svg PUBLIC "-//W3C//DTD SVG 1.1//EN" "http://www.w3.org/Graphics/SVG/1.1/DTD/svg11.dtd">
<!-- Creator: CorelDRAW 2019 (64-Bit Keine kommerzielle Nutzung) -->
<svg xmlns="http://www.w3.org/2000/svg" xml:space="preserve" width="93.0001mm" height="36.4187mm" version="1.1" style="shape-rendering:geometricPrecision; text-rendering:geometricPrecision; image-rendering:optimizeQuality; fill-rule:evenodd; clip-rule:evenodd"
viewBox="0 0 9285.76 3636.29"
 xmlns:xlink="http://www.w3.org/1999/xlink"
 xmlns:xodm="http://www.corel.com/coreldraw/odm/2003">
 <defs>
  <style type="text/css">
   <![CDATA[
    .fil0 {fill:#DC6E00;fill-rule:nonzero}
    .fil1 {fill:white;fill-rule:nonzero}
   ]]>
  </style>
 </defs>
 <g id="Ebene_x0020_1">
  <metadata id="CorelCorpID_0Corel-Layer"/>
  <path class="fil0" d="M1032.38 774.87l29.36 -109.57 29.35 -109.57 29.36 -109.58 29.35 -109.56 -109.57 -29.36 -29.35 109.57 -109.58 -29.36 29.36 -109.57 109.57 29.36 29.36 -109.57 109.57 29.36 29.35 -109.57 109.57 29.35 -29.35 109.57 -29.36 109.57 -29.35 109.57 -29.36 109.58 -29.35 109.57 -29.36 109.57 -109.57 -29.36zm-438.29 -117.44l29.35 -109.57 29.36 -109.57 29.35 -109.58 29.36 -109.56 29.35 -109.57 29.36 -109.57 109.57 29.35 -29.36 109.57 109.57 29.36 -29.35 109.56 -109.57 -29.35 -29.36 109.57 -29.35 109.58 -29.36 109.57 -29.35 109.57 -109.57 -29.36z"/>
  <path id="1" class="fil0" d="M1500.02 782.74l109.58 29.36 -29.36 109.57 -109.57 -29.36 -109.57 -29.36 29.35 -109.56 109.57 29.35zm-109.57 -29.35l-109.57 -29.36 29.36 -109.57 29.36 -109.58 29.35 -109.57 109.57 29.36 -29.36 109.57 109.57 29.35 109.58 29.36 29.36 -109.57 109.56 29.36 -29.35 109.56 -29.36 109.58 -109.57 -29.35 -109.57 -29.36 -109.57 -29.35 -29.36 109.57zm307.24 -270.01l-109.58 -29.36 -109.57 -29.35 29.35 -109.57 109.57 29.35 109.58 29.36 -29.35 109.57z"/>
  <path id="2" class="fil0" d="M1908.95 1009.75l29.36 -109.57 109.56 29.35 -29.35 109.57 -109.57 -29.35zm29.36 -109.57l-109.57 -29.35 29.35 -109.57 29.36 -109.58 29.35 -109.57 29.36 -109.57 29.35 -109.57 109.57 29.36 -29.35 109.57 109.56 29.35 -29.35 109.57 -109.57 -29.36 -29.35 109.57 -29.36 109.58 -29.35 109.57z"/>
  <path id="3" class="fil0" d="M2376.6 1017.62l109.58 29.36 -29.36 109.57 -109.58 -29.36 -109.56 -29.36 29.35 -109.56 109.57 29.35zm-109.57 -29.35l-109.57 -29.36 29.36 -109.57 29.35 -109.58 29.36 -109.56 109.57 29.35 -29.36 109.57 109.57 29.35 109.58 29.36 29.35 -109.57 109.57 29.36 -29.35 109.56 -29.36 109.58 -109.57 -29.35 -109.58 -29.36 -109.57 -29.35 -29.35 109.57zm307.23 -270.01l-109.58 -29.36 -109.56 -29.35 29.35 -109.57 109.57 29.36 109.58 29.35 -29.36 109.57z"/>
  <path id="4" class="fil0" d="M2924.46 1164.42l109.58 29.35 -29.35 109.57 -109.58 -29.36 -109.57 -29.35 29.35 -109.57 109.57 29.36zm109.58 29.35l29.35 -109.57 29.36 -109.57 29.36 -109.57 109.56 29.35 -29.35 109.57 -29.36 109.58 -29.35 109.57 -109.57 -29.36zm-219.15 -58.72l-109.57 -29.35 29.36 -109.57 29.36 -109.58 29.35 -109.57 109.57 29.35 -29.36 109.57 -29.35 109.58 -29.36 109.57zm307.24 -270l-109.58 -29.36 -109.57 -29.36 29.35 -109.56 109.57 29.35 109.58 29.36 -29.35 109.57z"/>
  <path id="5" class="fil0" d="M3223.82 1362.07l29.36 -109.57 29.35 -109.57 29.36 -109.58 29.35 -109.56 29.36 -109.57 109.57 29.35 -29.36 109.57 109.57 29.35 -29.35 109.57 -109.57 -29.35 -29.36 109.58 -29.35 109.57 -29.36 109.56 -109.57 -29.35zm336.58 -379.58l29.35 -109.56 109.58 29.35 -29.35 109.57 -109.58 -29.36z"/>
  <polygon class="fil1" points="877.88,3290.5 1104.05,3250.62 1143.92,3476.78 917.76,3516.65 691.61,3556.53 465.44,3596.41 239.27,3636.29 199.39,3410.14 159.52,3183.96 119.64,2957.81 79.76,2731.65 39.88,2505.48 -0,2279.32 226.16,2239.44 452.34,2199.56 678.49,2159.69 904.65,2119.81 944.53,2345.97 718.37,2385.85 492.2,2425.72 266.04,2465.6 305.92,2691.77 532.09,2651.89 758.25,2612.01 798.13,2838.18 571.97,2878.05 345.8,2917.93 385.68,3144.09 425.56,3370.26 651.73,3330.38 "/>
  <path id="1" class="fil1" d="M2274.73 3277.39l-39.87 -226.16 226.16 -39.88 39.88 226.16 -226.17 39.88zm-904.64 159.51l-39.88 -226.15 226.16 -39.88 39.88 226.15 -226.16 39.88zm864.77 -385.67l-226.16 39.88 -39.88 -226.17 226.15 -39.88 39.89 226.17zm-678.49 119.64l-39.88 -226.17 226.16 -39.88 39.88 226.17 -226.16 39.88zm412.45 -305.93l-226.16 39.88 -39.88 -226.15 226.16 -39.88 39.88 226.15zm-39.88 -226.15l-39.88 -226.16 226.16 -39.88 39.87 226.16 -226.15 39.88zm-226.16 39.88l-226.16 39.88 -39.88 -226.16 226.16 -39.88 39.88 226.16zm412.45 -305.92l-39.89 -226.16 226.17 -39.88 39.88 226.16 -226.16 39.88zm-678.49 119.64l-226.16 39.88 -39.88 -226.16 226.16 -39.88 39.88 226.16z"/>
  <path id="2" class="fil1" d="M2953.22 3157.75l-39.88 -226.16 226.17 -39.88 39.88 226.16 -226.17 39.88zm-39.88 -226.16l-226.15 39.88 -39.88 -226.16 -39.88 -226.16 -39.88 -226.16 -39.88 -226.16 -39.88 -226.16 226.15 -39.88 39.88 226.16 226.17 -39.88 39.88 226.16 -226.17 39.88 39.88 226.16 39.88 226.16 39.88 226.16z"/>
  <path id="3" class="fil1" d="M3405.54 3078l-39.88 -226.16 -39.88 -226.16 -39.88 -226.16 -39.88 -226.16 226.16 -39.87 39.88 226.15 39.88 226.16 39.88 226.16 39.88 226.16 -226.16 39.88zm-199.39 -1130.81l-39.88 -226.16 226.16 -39.88 39.88 226.16 -226.16 39.88z"/>
  <path id="4" class="fil1" d="M4536.36 2878.6l-39.88 -226.16 -39.88 -226.16 -39.88 -226.16 -39.88 -226.15 226.16 -39.88 39.88 226.15 39.88 226.16 39.88 226.16 39.88 226.16 -226.16 39.88zm-678.49 119.64l-39.88 -226.16 -39.88 -226.16 -39.88 -226.16 -39.88 -226.15 -39.88 -226.17 226.16 -39.88 226.16 -39.88 226.16 -39.88 39.88 226.17 -226.15 39.88 -226.17 39.88 39.88 226.15 39.88 226.16 39.88 226.16 39.88 226.16 -226.16 39.88z"/>
  <path id="5" class="fil1" d="M5627.3 2453.06l226.16 -39.88 39.87 226.15 -226.15 39.88 -226.16 39.88 -226.16 39.88 -39.88 -226.16 226.16 -39.88 226.16 -39.87zm-452.33 79.75l-226.16 39.88 -39.88 -226.16 -39.88 -226.16 -39.88 -226.15 226.16 -39.88 39.88 226.15 39.88 226.16 39.88 226.16zm292.81 -984.41l226.15 -39.88 39.89 226.17 -226.16 39.88 -226.16 39.88 -226.16 39.88 -39.88 -226.17 226.16 -39.88 226.16 -39.88z"/>
  <path id="6" class="fil1" d="M6345.66 2559.57l-39.88 -226.15 226.16 -39.88 39.88 226.15 -226.16 39.88zm-39.88 -226.15l-226.16 39.88 -39.88 -226.17 -39.88 -226.16 -39.88 -226.15 -39.88 -226.17 -39.88 -226.15 226.16 -39.88 39.88 226.15 226.16 -39.88 39.88 226.17 -226.16 39.88 39.88 226.16 39.88 226.15 39.88 226.17z"/>
  <path id="7" class="fil1" d="M6797.99 2479.81l-39.88 -226.15 -39.88 -226.17 -39.88 -226.15 -39.88 -226.16 226.15 -39.88 39.88 226.16 39.88 226.15 39.88 226.17 39.88 226.15 -226.15 39.88zm-199.39 -1130.81l-39.88 -226.15 226.15 -39.88 39.88 226.16 -226.15 39.87z"/>
  <path id="8" class="fil1" d="M7662.76 2094.15l226.16 -39.88 39.88 226.15 -226.16 39.88 -226.17 39.88 -39.88 -226.15 226.17 -39.88zm226.16 -39.88l-39.88 -226.17 -39.88 -226.15 -39.88 -226.16 226.15 -39.88 39.88 226.16 39.88 226.15 39.88 226.17 -226.15 39.88zm-452.34 79.76l-226.15 39.88 -39.88 -226.17 -39.88 -226.15 -39.88 -226.16 226.15 -39.88 39.88 226.16 39.88 226.15 39.88 226.17zm332.7 -758.25l-226.16 39.88 -226.17 39.88 -39.88 -226.16 226.17 -39.89 226.15 -39.87 39.89 226.16z"/>
  <path id="9" class="fil1" d="M9059.61 2081.04l-39.88 -226.16 -39.88 -226.17 -39.88 -226.15 -39.88 -226.16 226.16 -39.88 39.88 226.16 39.88 226.16 39.88 226.16 39.88 226.16 -226.16 39.88zm-678.48 119.63l-39.88 -226.15 -39.88 -226.17 -39.88 -226.15 -39.88 -226.16 -39.88 -226.16 226.15 -39.88 226.17 -39.88 226.15 -39.88 39.88 226.16 -226.15 39.88 -226.17 39.88 39.88 226.16 39.88 226.15 39.88 226.17 39.88 226.16 -226.15 39.87z"/>
 </g>
</svg>
